<svg width="100%" height="100%" viewBox="0 0 11 14" fill="none" xmlns="http://www.w3.org/2000/svg">
    <path
        d="M1.85081 5.92098C1.85081 4.87773 2.24215 3.87721 2.93873 3.13952C3.63532 2.40184 4.58009 1.98741 5.56521 1.98741C6.55033 1.98741 7.4951 2.40184 8.19168 3.13952C8.88827 3.87721 9.27961 4.87773 9.27961 5.92098C9.27961 7.53461 8.06046 9.63776 5.56521 12.157C3.06996 9.63776 1.85081 7.53461 1.85081 5.92098ZM5.56521 13.3511C8.59203 10.4376 10.105 7.96031 10.105 5.92098C10.105 4.6459 9.62673 3.42304 8.77534 2.52142C7.92396 1.6198 6.76924 1.11328 5.56521 1.11328C4.36117 1.11328 3.20645 1.6198 2.35507 2.52142C1.50369 3.42304 1.02539 4.6459 1.02539 5.92098C1.02539 7.96031 2.53839 10.4376 5.56521 13.3511Z" />
    <path
        d="M5.56521 7.08531C5.22301 7.08531 4.89483 6.94607 4.65285 6.6982C4.41088 6.45034 4.27494 6.11416 4.27494 5.76363C4.27494 5.4131 4.41088 5.07693 4.65285 4.82907C4.89483 4.5812 5.22301 4.44195 5.56521 4.44195C5.90741 4.44195 6.23559 4.5812 6.47756 4.82907C6.71953 5.07693 6.85547 5.4131 6.85547 5.76363C6.85547 6.11416 6.71953 6.45034 6.47756 6.6982C6.23559 6.94607 5.90741 7.08531 5.56521 7.08531ZM5.56521 7.96643C6.13554 7.96643 6.68251 7.73435 7.0858 7.32125C7.48909 6.90814 7.71565 6.34785 7.71565 5.76363C7.71565 5.17942 7.48909 4.61912 7.0858 4.20602C6.68251 3.79292 6.13554 3.56084 5.56521 3.56084C4.99488 3.56084 4.4479 3.79292 4.04462 4.20602C3.64133 4.61912 3.41477 5.17942 3.41477 5.76363C3.41477 6.34785 3.64133 6.90814 4.04462 7.32125C4.4479 7.73435 4.99488 7.96643 5.56521 7.96643Z" />
</svg>